<mxfile host="app.diagrams.net" modified="2022-09-13T14:46:23.691Z" agent="5.0 (Windows NT 10.0; Win64; x64) AppleWebKit/537.36 (KHTML, like Gecko) Chrome/105.0.0.0 Safari/537.36" etag="nSiyyF6tcCOcLT-BZK2N" version="20.3.0" type="github">
  <diagram id="lE21BZ4hjYVOJlGcXVAF" name="Seite-1">
    <mxGraphModel dx="1182" dy="732" grid="1" gridSize="10" guides="1" tooltips="1" connect="1" arrows="1" fold="1" page="1" pageScale="1" pageWidth="1169" pageHeight="827" math="0" shadow="0">
      <root>
        <mxCell id="0" />
        <mxCell id="1" parent="0" />
        <mxCell id="FTwfwn-TJzcWr2caftSN-14" value="6,8 x 0,6" style="rounded=0;whiteSpace=wrap;html=1;fontSize=27;" vertex="1" parent="1">
          <mxGeometry x="80" y="540" width="680" height="60" as="geometry" />
        </mxCell>
        <mxCell id="FTwfwn-TJzcWr2caftSN-3" value="" style="endArrow=none;html=1;rounded=0;snapToPoint=1;strokeColor=default;" edge="1" parent="1">
          <mxGeometry width="50" height="50" relative="1" as="geometry">
            <mxPoint x="80" y="800" as="sourcePoint" />
            <mxPoint x="1010" y="800" as="targetPoint" />
          </mxGeometry>
        </mxCell>
        <mxCell id="FTwfwn-TJzcWr2caftSN-4" value="" style="endArrow=none;html=1;rounded=0;snapToPoint=1;strokeColor=default;" edge="1" parent="1">
          <mxGeometry width="50" height="50" relative="1" as="geometry">
            <mxPoint x="80" y="800" as="sourcePoint" />
            <mxPoint x="80" y="525" as="targetPoint" />
          </mxGeometry>
        </mxCell>
        <mxCell id="FTwfwn-TJzcWr2caftSN-5" value="" style="endArrow=none;html=1;rounded=0;snapToPoint=1;strokeColor=default;" edge="1" parent="1">
          <mxGeometry width="50" height="50" relative="1" as="geometry">
            <mxPoint x="1010" y="800" as="sourcePoint" />
            <mxPoint x="1010" y="545" as="targetPoint" />
          </mxGeometry>
        </mxCell>
        <mxCell id="FTwfwn-TJzcWr2caftSN-6" value="" style="endArrow=none;html=1;rounded=0;snapToPoint=1;strokeColor=default;" edge="1" parent="1">
          <mxGeometry width="50" height="50" relative="1" as="geometry">
            <mxPoint x="80" y="525" as="sourcePoint" />
            <mxPoint x="1010" y="545" as="targetPoint" />
          </mxGeometry>
        </mxCell>
        <mxCell id="FTwfwn-TJzcWr2caftSN-12" value="Mülltonnen&lt;br&gt;1,8 x 2,0m" style="rounded=0;whiteSpace=wrap;html=1;fontSize=27;" vertex="1" parent="1">
          <mxGeometry x="140" y="600" width="180" height="200" as="geometry" />
        </mxCell>
        <mxCell id="FTwfwn-TJzcWr2caftSN-10" value="Fahrrad&lt;br style=&quot;font-size: 27px;&quot;&gt;Parkplatz&lt;br&gt;1,8 x 2,0m" style="rounded=0;whiteSpace=wrap;html=1;fontSize=27;" vertex="1" parent="1">
          <mxGeometry x="440" y="600" width="180" height="200" as="geometry" />
        </mxCell>
        <mxCell id="FTwfwn-TJzcWr2caftSN-11" value="Werkstatt-&lt;br&gt;erweiterung&lt;br&gt;2,5 x 2,5 m" style="rounded=0;whiteSpace=wrap;html=1;fontSize=27;" vertex="1" parent="1">
          <mxGeometry x="760" y="560" width="250" height="240" as="geometry" />
        </mxCell>
        <mxCell id="FTwfwn-TJzcWr2caftSN-15" value="0,6 x 2,0 m" style="rounded=0;whiteSpace=wrap;html=1;fontSize=27;textDirection=rtl;" vertex="1" parent="1">
          <mxGeometry x="80" y="600" width="60" height="200" as="geometry" />
        </mxCell>
        <mxCell id="FTwfwn-TJzcWr2caftSN-16" value="1,2 x 2,0m" style="rounded=0;whiteSpace=wrap;html=1;fontSize=27;" vertex="1" parent="1">
          <mxGeometry x="320" y="600" width="120" height="200" as="geometry" />
        </mxCell>
        <mxCell id="FTwfwn-TJzcWr2caftSN-17" value="1,2 x 2,0m" style="rounded=0;whiteSpace=wrap;html=1;fontSize=27;" vertex="1" parent="1">
          <mxGeometry x="620" y="600" width="120" height="200" as="geometry" />
        </mxCell>
        <mxCell id="FTwfwn-TJzcWr2caftSN-18" value="Fläche für Holz : ca. 10m² --&amp;gt; Bei 2m Höhe ≙ 20m³ ≙ 24 SRM" style="text;html=1;strokeColor=none;fillColor=none;align=left;verticalAlign=middle;whiteSpace=wrap;rounded=0;fontSize=27;" vertex="1" parent="1">
          <mxGeometry x="80" y="399" width="990" height="30" as="geometry" />
        </mxCell>
      </root>
    </mxGraphModel>
  </diagram>
</mxfile>
